<svg xmlns="http://www.w3.org/2000/svg"
     viewBox="0 0 32 32"
     width="32"
     height="32"
     fill="none">

  <!-- category background -->
  <circle cx="16" cy="16" r="12" fill="#E8F5E9"/>

  <!-- cup -->
  <path d="M9.2 14.2H21.1V18.6
           C21.1 22 18.8 24.1 15.2 24.1
           C11.6 24.1 9.2 22 9.2 18.6V14.2Z"
        fill="#FFFFFF"
        stroke="#4CAF50"
        stroke-width="2.1"
        stroke-linejoin="round"/>

  <!-- handle -->
  <path d="M21.1 15.8H22.2
           C24.1 15.8 25.2 17 25.2 18.5
           C25.2 20.2 23.9 21.2 21.8 21.2H20.5"
        stroke="#4CAF50"
        stroke-width="2"
        stroke-linecap="round"/>

  <!-- coffee surface -->
  <path d="M11.2 16.2H19.1"
        stroke="#4CAF50"
        stroke-width="1.7"
        stroke-linecap="round"/>

  <!-- steam -->
  <path d="M12.3 11.9
           C11.4 10.7 11.7 9.6 12.7 8.7"
        stroke="#4CAF50"
        stroke-width="1.8"
        stroke-linecap="round"/>

  <path d="M16 11.6
           C15 10.3 15.4 9 16.4 8"
        stroke="#4CAF50"
        stroke-width="1.8"
        stroke-linecap="round"/>

  <path d="M19.6 11.9
           C18.8 10.8 19.1 9.7 20 8.9"
        stroke="#4CAF50"
        stroke-width="1.8"
        stroke-linecap="round"/>

  <!-- saucer -->
  <path d="M8.2 25.2H22.5"
        stroke="#4CAF50"
        stroke-width="2"
        stroke-linecap="round"/>
</svg>
